<svg baseProfile="full" height="280" version="1.1" width="280" xmlns="http://www.w3.org/2000/svg" xmlns:ev="http://www.w3.org/2001/xml-events" xmlns:xlink="http://www.w3.org/1999/xlink"><defs /><rect fill="#111827" height="100%" width="100%" x="0" y="0" /><circle cx="20" cy="20" fill="#f9fafb" r="3" /><circle cx="60" cy="20" fill="#f9fafb" r="3" /><circle cx="100" cy="20" fill="#f9fafb" r="3" /><circle cx="140" cy="20" fill="#f9fafb" r="3" /><circle cx="180" cy="20" fill="#f9fafb" r="3" /><circle cx="220" cy="20" fill="#f9fafb" r="3" /><circle cx="260" cy="20" fill="#f9fafb" r="3" /><circle cx="20" cy="60" fill="#f9fafb" r="3" /><circle cx="60" cy="60" fill="#f9fafb" r="3" /><circle cx="100" cy="60" fill="#f9fafb" r="3" /><circle cx="140" cy="60" fill="#f9fafb" r="3" /><circle cx="180" cy="60" fill="#f9fafb" r="3" /><circle cx="220" cy="60" fill="#f9fafb" r="3" /><circle cx="260" cy="60" fill="#f9fafb" r="3" /><circle cx="20" cy="100" fill="#f9fafb" r="3" /><circle cx="60" cy="100" fill="#f9fafb" r="3" /><circle cx="100" cy="100" fill="#f9fafb" r="3" /><circle cx="140" cy="100" fill="#f9fafb" r="3" /><circle cx="180" cy="100" fill="#f9fafb" r="3" /><circle cx="220" cy="100" fill="#f9fafb" r="3" /><circle cx="260" cy="100" fill="#f9fafb" r="3" /><circle cx="20" cy="140" fill="#f9fafb" r="3" /><circle cx="60" cy="140" fill="#f9fafb" r="3" /><circle cx="100" cy="140" fill="#f9fafb" r="3" /><circle cx="140" cy="140" fill="#f9fafb" r="3" /><circle cx="180" cy="140" fill="#f9fafb" r="3" /><circle cx="220" cy="140" fill="#f9fafb" r="3" /><circle cx="260" cy="140" fill="#f9fafb" r="3" /><circle cx="20" cy="180" fill="#f9fafb" r="3" /><circle cx="60" cy="180" fill="#f9fafb" r="3" /><circle cx="100" cy="180" fill="#f9fafb" r="3" /><circle cx="140" cy="180" fill="#f9fafb" r="3" /><circle cx="180" cy="180" fill="#f9fafb" r="3" /><circle cx="220" cy="180" fill="#f9fafb" r="3" /><circle cx="260" cy="180" fill="#f9fafb" r="3" /><circle cx="20" cy="220" fill="#f9fafb" r="3" /><circle cx="60" cy="220" fill="#f9fafb" r="3" /><circle cx="100" cy="220" fill="#f9fafb" r="3" /><circle cx="140" cy="220" fill="#f9fafb" r="3" /><circle cx="180" cy="220" fill="#f9fafb" r="3" /><circle cx="220" cy="220" fill="#f9fafb" r="3" /><circle cx="260" cy="220" fill="#f9fafb" r="3" /><circle cx="20" cy="260" fill="#f9fafb" r="3" /><circle cx="60" cy="260" fill="#f9fafb" r="3" /><circle cx="100" cy="260" fill="#f9fafb" r="3" /><circle cx="140" cy="260" fill="#f9fafb" r="3" /><circle cx="180" cy="260" fill="#f9fafb" r="3" /><circle cx="220" cy="260" fill="#f9fafb" r="3" /><circle cx="260" cy="260" fill="#f9fafb" r="3" /><path d="M0,0 M20,20 Q40,20 60,60 M60,20 Q80,20 100,60 M100,20 Q120,20 140,60 M140,20 Q160,20 180,60 M180,20 Q200,20 220,60 M220,20 Q240,20 260,60 M20,60 Q40,60 60,100 M60,60 Q80,60 100,100 M100,60 Q120,60 140,100 M140,60 Q160,60 180,100 M180,60 Q200,60 220,100 M220,60 Q240,60 260,100 M20,100 Q40,100 60,140 M60,100 Q80,100 100,140 M100,100 Q120,100 140,140 M140,100 Q160,100 180,140 M180,100 Q200,100 220,140 M220,100 Q240,100 260,140 M20,140 Q40,140 60,180 M60,140 Q80,140 100,180 M100,140 Q120,140 140,180 M140,140 Q160,140 180,180 M180,140 Q200,140 220,180 M220,140 Q240,140 260,180 M20,180 Q40,180 60,220 M60,180 Q80,180 100,220 M100,180 Q120,180 140,220 M140,180 Q160,180 180,220 M180,180 Q200,180 220,220 M220,180 Q240,180 260,220 M20,220 Q40,220 60,260 M60,220 Q80,220 100,260 M100,220 Q120,220 140,260 M140,220 Q160,220 180,260 M180,220 Q200,220 220,260 M220,220 Q240,220 260,260" fill="none" stroke="#f9fafb" stroke-width="2" /></svg>